<svg width="40" height="40" viewBox="0 0 40 40" fill="none" xmlns="http://www.w3.org/2000/svg">
<path fill-rule="evenodd" clip-rule="evenodd" d="M20.0579 11.4776C20.4499 11.8667 20.4524 12.4998 20.0634 12.8919L13.0103 20L20.0634 27.1081C20.4524 27.5002 20.4499 28.1334 20.0579 28.5224C19.6658 28.9114 19.0327 28.9089 18.6437 28.5169L10.8917 20.7044C10.5048 20.3145 10.5048 19.6855 10.8917 19.2956L18.6437 11.4831C19.0327 11.0911 19.6658 11.0886 20.0579 11.4776Z" fill="#07825F"/>
<path fill-rule="evenodd" clip-rule="evenodd" d="M11.6787 20C11.6787 19.4477 12.1264 19 12.6787 19H28.3984C28.9507 19 29.3984 19.4477 29.3984 20C29.3984 20.5523 28.9507 21 28.3984 21H12.6787C12.1264 21 11.6787 20.5523 11.6787 20Z" fill="#07825F"/>
<path fill-rule="evenodd" clip-rule="evenodd" d="M0.25 20C0.25 9.09615 9.09615 0.25 20 0.25C30.9038 0.25 39.75 9.09615 39.75 20C39.75 30.9038 30.9038 39.75 20 39.75C9.09615 39.75 0.25 30.9038 0.25 20ZM20 2.25C10.2007 2.25 2.25 10.2007 2.25 20C2.25 29.7993 10.2007 37.75 20 37.75C29.7993 37.75 37.75 29.7993 37.75 20C37.75 10.2007 29.7993 2.25 20 2.25Z" fill="#07825F"/>
</svg>
