<svg width="12" height="12" viewBox="0 0 12 12" fill="none" xmlns="http://www.w3.org/2000/svg">
<path d="M11.6565 0.343412C11.266 -0.0470879 10.633 -0.0470879 10.2425 0.343412L5.99998 4.58591L1.75748 0.343412C1.36698 -0.0470879 0.733985 -0.0470879 0.342985 0.343412C-0.0475152 0.733912 -0.0475152 1.36691 0.342985 1.75741L4.58548 5.99991L0.342985 10.2424C-0.0475152 10.6324 -0.0475152 11.2664 0.342985 11.6564C0.733485 12.0469 1.36648 12.0469 1.75748 11.6564L5.99998 7.41394L10.2425 11.6564C10.633 12.0469 11.266 12.0469 11.6565 11.6564C12.047 11.2664 12.047 10.6324 11.6565 10.2424L7.41398 5.99991L11.6565 1.75741C12.0475 1.36641 12.0475 0.733412 11.6565 0.343412Z" fill="#FF2A2A"/>
</svg>
