<svg width="32" height="32" viewBox="0 0 32 32" fill="none" xmlns="http://www.w3.org/2000/svg">
<g clip-path="url(#clip0_6_1031)">
<path d="M31.8472 10.0155C31.8472 8.91098 30.9728 8.01548 29.8944 8.01548H26.5608C27.4235 7.14398 27.9757 6.00151 27.9757 4.59448C27.9757 2.86198 27.0041 0.97998 24.2769 0.97998C20.6885 0.97998 17.6909 4.89298 16.2824 7.08648C14.8729 4.89348 11.7835 0.98048 8.19554 0.98048C5.46836 0.98048 4.49681 2.86248 4.49681 4.59498C4.49681 6.00148 5.06411 7.14448 5.94437 8.01598H2.55419C1.47572 8.01598 0.601318 8.91148 0.601318 10.016V16.0025H2.57128V29.02C2.57128 30.1245 3.44564 31.02 4.52415 31.02H27.9488C29.0273 31.02 29.9017 30.1245 29.9017 29.02V16.002H31.8472V10.0155H31.8472ZM24.2769 2.98048C25.4843 2.98048 26.0228 3.50001 26.0228 4.59501C26.0228 6.81651 23.6017 8.01498 21.3247 8.01498H18.019C19.4064 5.90448 21.8485 2.98048 24.2769 2.98048ZM8.19551 2.98051C10.6244 2.98051 13.1587 5.90451 14.5462 8.01451H11.2395C8.96247 8.01451 6.44961 6.78501 6.44961 4.56351C6.44961 3.46901 6.98812 2.98051 8.19551 2.98051ZM29.8943 14.002H17.2007V10.0155H29.8943V14.002ZM2.55416 10.0155H15.2478V14.002H2.55416V10.0155ZM4.52412 16.002H15.2478V29.0195H4.52412V16.002ZM27.9493 29.0195H17.2007V16.002H27.9493V29.0195Z" fill="white"/>
</g>
<defs>
<clipPath id="clip0_6_1031">
<rect width="31.2459" height="32" fill="white" transform="translate(0.601257)"/>
</clipPath>
</defs>
</svg>
